<?xml version="1.0" encoding="iso-8859-1"?>
<!-- Uploaded to: SVG Repo, www.svgrepo.com, Generator: SVG Repo Mixer Tools -->
<svg fill="#000000" height="800px" width="800px" version="1.1" id="Layer_1" xmlns="http://www.w3.org/2000/svg" xmlns:xlink="http://www.w3.org/1999/xlink" 
	 viewBox="0 0 487.998 487.998" xml:space="preserve">
<g transform="translate(0 -540.36)">
	<g>
		<g>
			<path d="M458.749,739.5c0-20.104-6.5-39.308-18.7-55.411c-10.1-13.403-23.4-23.705-38.8-30.106c1.5-6.601,2.3-13.603,2.3-20.504
				c0-51.311-42.6-93.119-95.1-93.119c-26.1,0-47.3,9.102-64.7,27.606c-18-17.104-45.7-27.606-74.1-27.606
				c-52.9,0-95.9,41.809-95.9,93.119c0,8.402,0,17.104,1.8,25.405c-28.8,16.304-46.3,46.409-46.3,80.616
				c0,17.303,5.4,34.707,15.3,49.51c-9.9,14.803-15.3,32.107-15.3,49.51c0,32.606,18,63.112,46.6,79.816
				c-1.5,6.501-2.2,13.003-2.2,19.204c0,24.705,10.4,47.809,29.2,64.913c18.3,16.703,42.6,25.905,68.3,25.905
				c29.4,0,55.7-9.402,72.9-25.605c17.3,16.203,43.6,25.605,72.9,25.605l0,0c51,0,86.6-37.308,86.5-90.718
				c0-5.101-0.4-9.902-1.2-14.403c15.2-6.702,28.3-17.204,38.3-30.606c11.9-16.003,18.2-34.707,18.2-54.111
				c0-17.303-5.4-34.707-15.3-49.51C453.349,774.207,458.749,756.903,458.749,739.5z M423.349,795.111
				c10,12.503,15.5,27.906,15.5,43.308c0,30.606-21.1,59.012-51.4,69.014c-2.5,0.8-4.6,2.601-5.8,5.001
				c-1.2,2.401-1.3,5.201-0.5,7.702c1.7,5.201,2.5,10.702,2.5,17.403c0,42.308-26.8,70.814-66.7,70.814
				c-28.1,0-52.4-9.902-64.9-26.505c-1.9-2.5-4.9-4.001-8-4.001l0,0c-3.1,0-6.1,1.5-7.8,3.901c-12.6,16.603-36.8,26.505-64.9,26.505
				c-42.7,0-77.4-31.806-77.4-70.814c0-6.801,1.1-14.003,3.4-21.504c1.4-4.701-0.8-9.802-5.3-11.902
				c-25.9-12.102-42.6-37.907-42.6-65.613c0-15.403,5.5-30.706,15.5-43.308c2.9-3.601,2.9-8.802,0-12.402
				c-10-12.503-15.5-27.906-15.5-43.308c0-29.606,15.9-54.411,42.4-66.313c4.9-2.201,7.2-8.002,5.1-13.003
				c-3.1-7.302-3.1-16.704-3.1-26.605c0-40.308,34.1-73.115,75.9-73.115c26.7,0,53.4,11.602,66.4,28.806c1.9,2.5,4.8,4.001,8,4.001
				s6.1-1.5,8-4.001c14.8-19.604,32.7-28.806,56.4-28.806c41.4,0,75.1,32.807,75.1,73.115c0,8.002-1.4,16.103-4,23.205
				c-1,2.601-0.8,5.401,0.4,7.901c1.3,2.5,3.5,4.301,6.1,5.101c31.5,9.502,52.7,37.508,52.7,69.714c0,15.403-5.5,30.706-15.5,43.308
				C420.449,786.31,420.449,791.51,423.349,795.111z"/>
			<path d="M325.349,742.123c-0.9-41.409-32.1-74.615-74.1-79.016c-19.9-2.1-39.8,3.101-56.2,14.603
				c-16.5,11.602-27.9,28.706-32.1,48.01c-1.2,5.401,2.2,10.702,7.6,11.902c5.4,1.2,10.7-2.2,11.9-7.602
				c6.6-30.206,35.2-50.41,66.7-47.11c31.9,3.301,55.6,28.406,56.2,59.612c0,0.1,0,0.1,0,0.2c1.3,30.706-21.4,57.412-52.8,62.113
				c-0.1,0-0.2,0-0.2,0c-0.2,0-0.4,0.1-0.6,0.1c-0.1,0-0.3,0.1-0.4,0.1c-0.2,0-0.3,0.1-0.5,0.2c-0.1,0-0.3,0.1-0.4,0.2
				c-0.2,0.1-0.3,0.1-0.5,0.2c-0.2,0.1-0.3,0.1-0.5,0.2c-0.1,0.1-0.3,0.1-0.4,0.2c-0.2,0.1-0.3,0.2-0.5,0.3
				c-0.1,0.1-0.2,0.2-0.3,0.2c-0.1,0.1-0.3,0.2-0.4,0.3c-0.1,0.1-0.2,0.2-0.3,0.3c-0.1,0.1-0.3,0.2-0.4,0.4
				c-0.1,0.1-0.2,0.2-0.3,0.3s-0.2,0.2-0.3,0.4c-0.1,0.1-0.2,0.2-0.3,0.4c-0.1,0.1-0.2,0.2-0.3,0.4c-0.1,0.1-0.2,0.3-0.3,0.4
				s-0.2,0.2-0.2,0.4c-0.1,0.2-0.2,0.3-0.2,0.5c-0.1,0.1-0.1,0.3-0.2,0.4c-0.1,0.2-0.1,0.3-0.2,0.5c-0.1,0.1-0.1,0.3-0.2,0.4
				c-0.1,0.2-0.1,0.3-0.1,0.5c0,0.2-0.1,0.3-0.1,0.5c0,0.1-0.1,0.3-0.1,0.4c0,0.2-0.1,0.4-0.1,0.6c0,0.1,0,0.3,0,0.4
				c0,0.2,0,0.4,0,0.6c0,0.1,0,0.2,0,0.2v30.506c0,5.501,4.5,10.002,10,10.002s10-4.501,10-10.002V823.04
				c16.5-4.201,31.3-13.403,42.4-26.405C319.449,781.231,326.149,761.827,325.349,742.123L325.349,742.123z"/>
			<path d="M254.049,876.527c-5.5,0-10,4.501-10,10.002v19.804c0,5.501,4.5,10.002,10,10.002s10-4.501,10-10.002v-19.804
				C264.049,881.028,259.549,876.527,254.049,876.527z"/>
		</g>
	</g>
</g>
</svg>